<?xml version="1.0" encoding="UTF-8" standalone="no"?>
<svg
   xmlns:dc="http://purl.org/dc/elements/1.1/"
   xmlns:cc="http://creativecommons.org/ns#"
   xmlns:rdf="http://www.w3.org/1999/02/22-rdf-syntax-ns#"
   xmlns:svg="http://www.w3.org/2000/svg"
   xmlns="http://www.w3.org/2000/svg"
   xmlns:sodipodi="http://sodipodi.sourceforge.net/DTD/sodipodi-0.dtd"
   xmlns:inkscape="http://www.inkscape.org/namespaces/inkscape"
   width="264.79352mm"
   height="111.29961mm"
   viewBox="0 0 264.79352 111.29962"
   version="1.1"
   id="svg8"
   inkscape:version="1.0.2 (e86c870879, 2021-01-15, custom)"
   sodipodi:docname="Molto (2008).svg">
  <defs
     id="defs2" />
  <sodipodi:namedview
     id="base"
     pagecolor="#ffffff"
     bordercolor="#666666"
     borderopacity="1.0"
     inkscape:pageopacity="0.0"
     inkscape:pageshadow="2"
     inkscape:zoom="0.35"
     inkscape:cx="406.27656"
     inkscape:cy="-97.175275"
     inkscape:document-units="mm"
     inkscape:current-layer="layer1"
     inkscape:document-rotation="0"
     showgrid="false"
     inkscape:window-width="1366"
     inkscape:window-height="715"
     inkscape:window-x="-8"
     inkscape:window-y="-8"
     inkscape:window-maximized="1" />
  <metadata
     id="metadata5">
    <rdf:RDF>
      <cc:Work
         rdf:about="">
        <dc:format>image/svg+xml</dc:format>
        <dc:type
           rdf:resource="http://purl.org/dc/dcmitype/StillImage" />
        <dc:title></dc:title>
      </cc:Work>
    </rdf:RDF>
  </metadata>
  <g
     inkscape:label="Layer 1"
     inkscape:groupmode="layer"
     id="layer1"
     transform="translate(85.439826,-214.78709)">
    <path
       style="fill:#11155e;fill-opacity:1;stroke-width:0.252992"
       d="m 1.3793738,325.6662 c -2.7164216,-0.71483 -4.5282836,-1.84075 -7.0837566,-4.40198 -3.626701,-3.63488 -5.6454712,-7.43227 -6.8693742,-12.92163 -0.501518,-2.24936 -0.588742,-3.33945 -0.585956,-7.32309 0.0048,-6.91183 0.806136,-10.98137 5.1807033,-26.3111 3.9648716,-13.89402 4.8440875,-18.35203 4.3048534,-21.82747 -0.5413985,-3.48939 -1.9738404,-4.86411 -5.0661222,-4.86197 -2.0706785,0.003 -3.3440515,0.69504 -5.4604385,2.97429 -2.748849,2.96037 -4.890502,7.21021 -8.444926,16.7579 -3.430388,9.2145 -6.361986,18.55456 -7.705682,24.55024 -1.239785,5.53203 -1.493483,7.96615 -1.516211,14.5475 -0.01922,5.56547 -0.06937,6.28207 -0.483859,6.91515 -2.149035,3.28234 -9.045195,0.39447 -12.831814,-5.37351 -3.440312,-5.24047 -4.600091,-12.39704 -3.271159,-20.18519 0.88564,-5.19026 1.921805,-8.51449 6.454457,-20.70718 5.00506,-13.46344 6.18956,-17.58169 6.18956,-21.51977 0,-4.99748 -1.797716,-7.55199 -5.312818,-7.54934 -2.822157,0.003 -5.249557,1.82562 -8.095283,6.08132 -1.821548,2.72406 -3.993677,6.99067 -8.227781,16.1614 -8.65825,18.75309 -11.417236,27.34835 -12.238895,38.12866 -0.257193,3.37441 -0.656855,4.35771 -2.058595,5.06484 -1.336708,0.67431 -2.675611,0.55832 -4.678868,-0.40536 -4.254103,-2.04648 -7.364015,-6.54525 -8.595035,-12.43356 -0.559497,-2.67622 -0.563536,-8.06676 -0.0084,-11.25811 1.372142,-7.88872 3.452637,-13.31805 11.584901,-30.23247 6.31701,-13.13884 8.591037,-19.64694 9.442332,-27.02326 0.714805,-6.19367 1.353961,-7.4611 3.885217,-7.70432 1.835448,-0.17637 3.591768,0.7474 5.652205,2.97286 2.82384,3.05 4.037697,6.14217 4.383787,11.16721 l 0.177313,2.5744 1.111893,-1.29058 c 3.830343,-4.44587 10.012532,-6.81028 16.013963,-6.12463 8.340329,0.95285 13.730878,6.68144 14.337855,15.237 l 0.156452,2.20523 2.025208,-1.90517 c 2.482123,-2.33499 5.108272,-3.90904 8.2736333,-4.95893 2.2061112,-0.73173 2.6837976,-0.79826 5.8188001,-0.81022 2.82318764,-0.0111 3.7638294,0.0868 5.4249958,0.56284 4.7969363,1.3746 8.5559238,4.2456 10.3513028,7.906 1.666478,3.3976 2.026739,5.27965 2.030361,10.60695 0.0045,6.71995 -0.844697,11.05205 -4.538088,23.14872 -5.6016297,18.34655 -6.9341143,24.69453 -6.6247944,31.56064 0.1786571,3.96571 0.9323387,7.59573 2.3740828,11.43451 0.9053117,2.41049 1.1204377,3.27665 1.026927,4.13474 -0.2702799,2.48027 -2.7729769,3.41794 -6.5029084,2.43644 z m 37.2797832,-0.12739 c -2.027164,-0.7796 -6.020681,-2.89499 -8.149743,-4.31699 C 19.27736,313.72 12.855655,302.1382 13.346252,290.26736 c 0.385795,-9.33495 4.905491,-15.94461 12.760186,-18.66063 2.880463,-0.99602 7.055448,-1.24312 9.986327,-0.59106 2.036278,0.45303 4.924194,1.74829 6.128067,2.7485 l 0.742334,0.61676 1.155101,-0.888 c 2.626286,-2.01896 6.053504,-3.07578 9.993635,-3.08164 8.595212,-0.0128 15.505965,5.61135 17.870301,14.54327 0.841646,3.17952 0.950729,8.58745 0.24241,12.01709 -1.385386,6.70793 -4.826308,12.76031 -10.355877,18.21537 -3.434527,3.38825 -6.577493,5.62203 -11.029561,7.83896 -6.131055,3.05298 -9.153834,3.6766 -12.180018,2.51283 z m 7.049417,-10.49354 c 2.320868,-1.49706 6.05287,-5.22443 7.710542,-7.70098 3.85782,-5.76355 5.309635,-11.30001 4.260878,-16.24879 -0.495922,-2.34013 -1.164945,-3.74518 -2.444016,-5.13283 -1.599057,-1.73476 -3.190332,-2.46126 -5.693362,-2.59932 -2.378923,-0.1312 -3.394937,0.12568 -5.486532,1.38716 -1.318232,0.79506 -1.514448,0.84795 -1.897435,0.51163 -1.317518,-1.15702 -2.6631,-1.57113 -5.1075,-1.57185 -2.116855,-4.4e-4 -2.574164,0.0832 -3.835485,0.70257 -1.633924,0.80238 -2.957704,2.14945 -3.837245,3.90475 -0.976835,1.94946 -1.264231,3.64718 -1.121288,6.62373 0.195048,4.06156 1.700705,8.17381 4.502221,12.29645 2.287648,3.36645 5.649602,6.80769 8.339658,8.53634 1.474689,0.94762 2.218929,0.83318 4.609564,-0.70886 z m 44.562338,5.20627 c -7.060943,-1.85114 -11.04397,-7.64267 -12.356503,-17.96708 -0.203432,-1.60017 -0.546585,-7.29247 -0.762574,-12.64957 -1.171315,-29.05238 -1.443509,-34.10898 -2.042731,-37.94869 -0.715854,-4.5871 -1.585639,-7.02276 -3.581076,-10.0281 -1.222835,-1.84173 -1.372727,-3.24913 -0.461382,-4.3322 0.847521,-1.00722 2.031456,-1.25268 4.040567,-0.8377 5.469795,1.12977 10.453081,5.4938 12.83761,11.24231 2.135882,5.14911 2.619831,9.65266 3.7553,34.94712 0.891078,19.85016 1.22526,22.41635 3.486878,26.7764 0.702807,1.35489 1.491816,2.2879 3.637106,4.30084 2.572033,2.41339 2.739613,2.63067 2.739713,3.55271 1.6e-4,1.27678 -1.24803,2.51142 -3.092818,3.05926 -1.82702,0.54257 -5.909687,0.48516 -8.20009,-0.1153 z m 28.360878,-6.33801 c -4.75755,-0.62913 -7.94335,-3.02468 -10.25038,-7.7077 -2.24548,-4.55811 -2.95109,-8.15486 -4.66539,-23.78119 -0.50374,-4.59179 -0.95741,-8.47705 -1.00815,-8.6339 -0.0555,-0.17154 -1.03284,-0.33734 -2.45229,-0.41603 -2.849267,-0.15793 -4.026322,-0.49086 -5.087405,-1.43893 -0.660919,-0.59053 -0.802992,-0.90569 -0.802992,-1.78122 0,-1.6391 0.952777,-2.34393 4.126261,-3.05249 1.393479,-0.31112 2.669146,-0.64945 2.834816,-0.75184 0.22919,-0.14165 0.19746,-0.66192 -0.13268,-2.17553 -1.17645,-5.39369 -2.562452,-9.10183 -5.017617,-13.42432 -1.669675,-2.93958 -1.939972,-4.01203 -1.288994,-5.11409 1.016414,-1.72065 3.843092,-2.03519 7.342401,-0.81704 5.54045,1.92869 9.79363,6.66459 12.07831,13.44916 l 0.60463,1.79551 2.49674,-1.88973 c 1.37321,-1.03936 3.50773,-2.8225 4.74336,-3.96254 2.91634,-2.69073 4.10434,-3.22424 5.20111,-2.3357 1.29241,1.04704 1.13724,4.14385 -0.36448,7.27349 -1.45815,3.03879 -4.51387,6.14563 -8.37556,8.51563 l -2.05131,1.25894 0.21189,1.13419 c 0.11654,0.62381 0.78424,5.71067 1.48376,11.30416 1.35604,10.84292 2.36492,16.51223 3.2837,18.45247 0.59732,1.26141 1.91795,2.59535 2.96271,2.99256 1.09499,0.41632 3.13731,0.27174 4.33215,-0.30666 1.28962,-0.62431 2.80069,-2.7192 3.33316,-4.62097 0.55938,-1.99787 1.92452,-2.99531 3.35512,-2.45139 1.49486,0.56835 2.13423,2.66774 1.69652,5.57051 -0.73244,4.85724 -3.81848,9.10309 -8.18187,11.25685 -2.91084,1.43678 -7.06953,2.0992 -10.40752,1.6578 z m 32.26545,-15.69599 c -10.52971,-1.2411 -19.12189,-9.86762 -21.65169,-21.73818 -0.54796,-2.57122 -0.62354,-8.20167 -0.14094,-10.49915 2.64333,-12.5837 12.66323,-20.89634 25.20801,-20.91287 4.88485,-0.005 8.96823,1.1981 12.92596,3.81292 6.73883,4.45229 11.175,12.14261 11.99483,20.79362 1.01719,10.73375 -4.49874,21.25874 -13.48404,25.7289 -4.77884,2.37747 -10.06402,3.37912 -14.85213,2.81476 z m 10.17742,-9.55524 c 4.39817,-2.15155 5.49004,-10.07308 2.60352,-18.88885 -1.75443,-5.35831 -4.69747,-10.56679 -7.33036,-12.9731 -1.91316,-1.74853 -3.40115,-2.42584 -5.57707,-2.53859 -1.60902,-0.0833 -1.92058,-0.0141 -3.40758,0.75722 -3.19977,1.65987 -4.43639,4.22345 -4.43321,9.19029 0.003,3.40114 0.31339,5.30512 1.53006,9.36068 1.69349,5.64494 3.63656,9.39808 6.36044,12.28556 2.66069,2.82046 4.20668,3.56764 7.16053,3.46068 1.36347,-0.0494 2.23408,-0.23338 3.09367,-0.65389 z"
       id="path24" />
  </g>
</svg>
